<mxfile host="app.diagrams.net" agent="Mozilla/5.0 (Windows NT 10.0; Win64; x64) AppleWebKit/537.36 (KHTML, like Gecko) Chrome/130.0.0.0 Safari/537.36" version="24.8.6">
  <diagram name="Страница — 1" id="XvGnUhqais7ovpIdh03c">
    <mxGraphModel dx="2587" dy="936" grid="1" gridSize="10" guides="1" tooltips="1" connect="1" arrows="1" fold="1" page="1" pageScale="1" pageWidth="827" pageHeight="1169" math="0" shadow="0">
      <root>
        <mxCell id="0" />
        <mxCell id="1" parent="0" />
        <mxCell id="_W7ZdrHySZgYsnJC7ajW-58" value="" style="html=1;dropTarget=0;whiteSpace=wrap;" vertex="1" parent="1">
          <mxGeometry x="-10" y="500" width="680" height="150" as="geometry" />
        </mxCell>
        <mxCell id="_W7ZdrHySZgYsnJC7ajW-59" value="" style="shape=module;jettyWidth=8;jettyHeight=4;" vertex="1" parent="_W7ZdrHySZgYsnJC7ajW-58">
          <mxGeometry x="1" width="20" height="20" relative="1" as="geometry">
            <mxPoint x="-27" y="7" as="offset" />
          </mxGeometry>
        </mxCell>
        <mxCell id="_W7ZdrHySZgYsnJC7ajW-9" value="" style="html=1;dropTarget=0;whiteSpace=wrap;align=right;" vertex="1" parent="1">
          <mxGeometry x="194" y="50" width="220" height="390" as="geometry" />
        </mxCell>
        <mxCell id="_W7ZdrHySZgYsnJC7ajW-10" value="" style="shape=module;jettyWidth=8;jettyHeight=4;" vertex="1" parent="_W7ZdrHySZgYsnJC7ajW-9">
          <mxGeometry x="1" width="20" height="20" relative="1" as="geometry">
            <mxPoint x="-27" y="7" as="offset" />
          </mxGeometry>
        </mxCell>
        <mxCell id="_W7ZdrHySZgYsnJC7ajW-1" value="UserService" style="html=1;dropTarget=0;whiteSpace=wrap;" vertex="1" parent="1">
          <mxGeometry x="-150" y="170" width="180" height="90" as="geometry" />
        </mxCell>
        <mxCell id="_W7ZdrHySZgYsnJC7ajW-2" value="" style="shape=module;jettyWidth=8;jettyHeight=4;" vertex="1" parent="_W7ZdrHySZgYsnJC7ajW-1">
          <mxGeometry x="1" width="20" height="20" relative="1" as="geometry">
            <mxPoint x="-27" y="7" as="offset" />
          </mxGeometry>
        </mxCell>
        <mxCell id="_W7ZdrHySZgYsnJC7ajW-37" style="edgeStyle=orthogonalEdgeStyle;rounded=0;orthogonalLoop=1;jettySize=auto;html=1;" edge="1" parent="1" source="_W7ZdrHySZgYsnJC7ajW-3" target="_W7ZdrHySZgYsnJC7ajW-5">
          <mxGeometry relative="1" as="geometry" />
        </mxCell>
        <mxCell id="_W7ZdrHySZgYsnJC7ajW-3" value="ProductService" style="html=1;dropTarget=0;whiteSpace=wrap;" vertex="1" parent="1">
          <mxGeometry x="214" y="140" width="180" height="90" as="geometry" />
        </mxCell>
        <mxCell id="_W7ZdrHySZgYsnJC7ajW-4" value="" style="shape=module;jettyWidth=8;jettyHeight=4;" vertex="1" parent="_W7ZdrHySZgYsnJC7ajW-3">
          <mxGeometry x="1" width="20" height="20" relative="1" as="geometry">
            <mxPoint x="-27" y="7" as="offset" />
          </mxGeometry>
        </mxCell>
        <mxCell id="_W7ZdrHySZgYsnJC7ajW-5" value="OrderService" style="html=1;dropTarget=0;whiteSpace=wrap;" vertex="1" parent="1">
          <mxGeometry x="214" y="320" width="180" height="90" as="geometry" />
        </mxCell>
        <mxCell id="_W7ZdrHySZgYsnJC7ajW-6" value="" style="shape=module;jettyWidth=8;jettyHeight=4;" vertex="1" parent="_W7ZdrHySZgYsnJC7ajW-5">
          <mxGeometry x="1" width="20" height="20" relative="1" as="geometry">
            <mxPoint x="-27" y="7" as="offset" />
          </mxGeometry>
        </mxCell>
        <mxCell id="_W7ZdrHySZgYsnJC7ajW-11" value="PaymentService" style="html=1;dropTarget=0;whiteSpace=wrap;" vertex="1" parent="1">
          <mxGeometry x="34" y="540" width="180" height="90" as="geometry" />
        </mxCell>
        <mxCell id="_W7ZdrHySZgYsnJC7ajW-12" value="" style="shape=module;jettyWidth=8;jettyHeight=4;" vertex="1" parent="_W7ZdrHySZgYsnJC7ajW-11">
          <mxGeometry x="1" width="20" height="20" relative="1" as="geometry">
            <mxPoint x="-27" y="7" as="offset" />
          </mxGeometry>
        </mxCell>
        <mxCell id="_W7ZdrHySZgYsnJC7ajW-13" value="NotificationService" style="html=1;dropTarget=0;whiteSpace=wrap;" vertex="1" parent="1">
          <mxGeometry x="440" y="520" width="180" height="90" as="geometry" />
        </mxCell>
        <mxCell id="_W7ZdrHySZgYsnJC7ajW-14" value="" style="shape=module;jettyWidth=8;jettyHeight=4;" vertex="1" parent="_W7ZdrHySZgYsnJC7ajW-13">
          <mxGeometry x="1" width="20" height="20" relative="1" as="geometry">
            <mxPoint x="-27" y="7" as="offset" />
          </mxGeometry>
        </mxCell>
        <mxCell id="_W7ZdrHySZgYsnJC7ajW-15" value="1C" style="text;html=1;align=center;verticalAlign=middle;resizable=0;points=[];autosize=1;strokeColor=none;fillColor=none;fontSize=21;" vertex="1" parent="1">
          <mxGeometry x="340" y="50" width="50" height="40" as="geometry" />
        </mxCell>
        <mxCell id="_W7ZdrHySZgYsnJC7ajW-16" value="&lt;p style=&quot;line-height: 160%; font-size: 14px;&quot;&gt;EDNA&lt;/p&gt;" style="text;html=1;align=center;verticalAlign=middle;resizable=0;points=[];autosize=1;strokeColor=none;fillColor=none;" vertex="1" parent="1">
          <mxGeometry x="540" y="510" width="60" height="60" as="geometry" />
        </mxCell>
        <mxCell id="_W7ZdrHySZgYsnJC7ajW-17" value="&lt;p style=&quot;line-height: 130%; font-size: 12px;&quot;&gt;KaspiPay&lt;/p&gt;" style="text;html=1;align=center;verticalAlign=middle;resizable=0;points=[];autosize=1;strokeColor=none;fillColor=none;fontStyle=1;fontSize=12;" vertex="1" parent="1">
          <mxGeometry x="114" y="530" width="80" height="50" as="geometry" />
        </mxCell>
        <mxCell id="_W7ZdrHySZgYsnJC7ajW-19" value="" style="rounded=0;orthogonalLoop=1;jettySize=auto;html=1;endArrow=halfCircle;endFill=0;endSize=6;strokeWidth=1;sketch=0;exitX=0.67;exitY=1.003;exitDx=0;exitDy=0;exitPerimeter=0;" edge="1" parent="1" source="_W7ZdrHySZgYsnJC7ajW-9">
          <mxGeometry relative="1" as="geometry">
            <mxPoint x="320" y="455" as="sourcePoint" />
            <mxPoint x="250" y="470" as="targetPoint" />
          </mxGeometry>
        </mxCell>
        <mxCell id="_W7ZdrHySZgYsnJC7ajW-20" value="" style="rounded=0;orthogonalLoop=1;jettySize=auto;html=1;endArrow=oval;endFill=0;sketch=0;sourcePerimeterSpacing=0;targetPerimeterSpacing=0;endSize=10;exitX=0.341;exitY=0.032;exitDx=0;exitDy=0;exitPerimeter=0;" edge="1" parent="1" source="_W7ZdrHySZgYsnJC7ajW-11">
          <mxGeometry relative="1" as="geometry">
            <mxPoint x="280" y="455" as="sourcePoint" />
            <mxPoint x="250" y="470" as="targetPoint" />
          </mxGeometry>
        </mxCell>
        <mxCell id="_W7ZdrHySZgYsnJC7ajW-21" value="" style="ellipse;whiteSpace=wrap;html=1;align=center;aspect=fixed;fillColor=none;strokeColor=none;resizable=0;perimeter=centerPerimeter;rotatable=0;allowArrows=0;points=[];outlineConnect=1;" vertex="1" parent="1">
          <mxGeometry x="295" y="450" width="10" height="10" as="geometry" />
        </mxCell>
        <mxCell id="_W7ZdrHySZgYsnJC7ajW-26" value="" style="rounded=0;orthogonalLoop=1;jettySize=auto;html=1;endArrow=halfCircle;endFill=0;endSize=6;strokeWidth=1;sketch=0;" edge="1" parent="1" source="_W7ZdrHySZgYsnJC7ajW-35">
          <mxGeometry relative="1" as="geometry">
            <mxPoint x="410" y="470" as="sourcePoint" />
            <mxPoint x="420" y="480" as="targetPoint" />
          </mxGeometry>
        </mxCell>
        <mxCell id="_W7ZdrHySZgYsnJC7ajW-27" value="" style="rounded=0;orthogonalLoop=1;jettySize=auto;html=1;endArrow=oval;endFill=0;sketch=0;sourcePerimeterSpacing=0;targetPerimeterSpacing=0;endSize=10;" edge="1" parent="1" source="_W7ZdrHySZgYsnJC7ajW-13">
          <mxGeometry relative="1" as="geometry">
            <mxPoint x="280" y="455" as="sourcePoint" />
            <mxPoint x="420" y="480" as="targetPoint" />
          </mxGeometry>
        </mxCell>
        <mxCell id="_W7ZdrHySZgYsnJC7ajW-28" value="" style="ellipse;whiteSpace=wrap;html=1;align=center;aspect=fixed;fillColor=none;strokeColor=none;resizable=0;perimeter=centerPerimeter;rotatable=0;allowArrows=0;points=[];outlineConnect=1;" vertex="1" parent="1">
          <mxGeometry x="295" y="450" width="10" height="10" as="geometry" />
        </mxCell>
        <mxCell id="_W7ZdrHySZgYsnJC7ajW-29" value="IPayment" style="text;html=1;align=center;verticalAlign=middle;resizable=0;points=[];autosize=1;strokeColor=none;fillColor=none;" vertex="1" parent="1">
          <mxGeometry x="160" y="480" width="70" height="30" as="geometry" />
        </mxCell>
        <mxCell id="_W7ZdrHySZgYsnJC7ajW-30" value="IPayment" style="text;html=1;align=center;verticalAlign=middle;resizable=0;points=[];autosize=1;strokeColor=none;fillColor=none;" vertex="1" parent="1">
          <mxGeometry x="260" y="450" width="70" height="30" as="geometry" />
        </mxCell>
        <mxCell id="_W7ZdrHySZgYsnJC7ajW-33" value="INotification" style="text;html=1;align=center;verticalAlign=middle;resizable=0;points=[];autosize=1;strokeColor=none;fillColor=none;" vertex="1" parent="1">
          <mxGeometry x="430" y="490" width="90" height="30" as="geometry" />
        </mxCell>
        <mxCell id="_W7ZdrHySZgYsnJC7ajW-48" value="INotification" style="text;html=1;align=center;verticalAlign=middle;resizable=0;points=[];autosize=1;strokeColor=none;fillColor=none;" vertex="1" parent="1">
          <mxGeometry x="340" y="450" width="90" height="30" as="geometry" />
        </mxCell>
        <mxCell id="_W7ZdrHySZgYsnJC7ajW-35" value="" style="verticalLabelPosition=bottom;verticalAlign=top;html=1;shape=mxgraph.basic.rect;fillColor2=none;strokeWidth=1;size=20;indent=5;" vertex="1" parent="1">
          <mxGeometry x="330" y="430" width="20" height="20" as="geometry" />
        </mxCell>
        <mxCell id="_W7ZdrHySZgYsnJC7ajW-41" value="" style="rounded=0;orthogonalLoop=1;jettySize=auto;html=1;endArrow=halfCircle;endFill=0;endSize=6;strokeWidth=1;sketch=0;exitX=0.5;exitY=0;exitDx=0;exitDy=0;" edge="1" target="_W7ZdrHySZgYsnJC7ajW-43" parent="1" source="_W7ZdrHySZgYsnJC7ajW-5">
          <mxGeometry relative="1" as="geometry">
            <mxPoint x="290" y="255" as="sourcePoint" />
          </mxGeometry>
        </mxCell>
        <mxCell id="_W7ZdrHySZgYsnJC7ajW-42" value="" style="rounded=0;orthogonalLoop=1;jettySize=auto;html=1;endArrow=oval;endFill=0;sketch=0;sourcePerimeterSpacing=0;targetPerimeterSpacing=0;endSize=10;exitX=0.5;exitY=1;exitDx=0;exitDy=0;" edge="1" target="_W7ZdrHySZgYsnJC7ajW-43" parent="1" source="_W7ZdrHySZgYsnJC7ajW-3">
          <mxGeometry relative="1" as="geometry">
            <mxPoint x="250" y="255" as="sourcePoint" />
          </mxGeometry>
        </mxCell>
        <mxCell id="_W7ZdrHySZgYsnJC7ajW-43" value="" style="ellipse;whiteSpace=wrap;html=1;align=center;aspect=fixed;fillColor=none;strokeColor=none;resizable=0;perimeter=centerPerimeter;rotatable=0;allowArrows=0;points=[];outlineConnect=1;" vertex="1" parent="1">
          <mxGeometry x="260" y="270" width="10" height="10" as="geometry" />
        </mxCell>
        <mxCell id="_W7ZdrHySZgYsnJC7ajW-44" value="" style="rounded=0;orthogonalLoop=1;jettySize=auto;html=1;endArrow=halfCircle;endFill=0;endSize=6;strokeWidth=1;sketch=0;" edge="1" parent="1" source="_W7ZdrHySZgYsnJC7ajW-1">
          <mxGeometry relative="1" as="geometry">
            <mxPoint x="170" y="235" as="sourcePoint" />
            <mxPoint x="160" y="245" as="targetPoint" />
          </mxGeometry>
        </mxCell>
        <mxCell id="_W7ZdrHySZgYsnJC7ajW-45" value="" style="rounded=0;orthogonalLoop=1;jettySize=auto;html=1;endArrow=oval;endFill=0;sketch=0;sourcePerimeterSpacing=0;targetPerimeterSpacing=0;endSize=10;" edge="1" parent="1" source="_W7ZdrHySZgYsnJC7ajW-9">
          <mxGeometry relative="1" as="geometry">
            <mxPoint x="130" y="235" as="sourcePoint" />
            <mxPoint x="160" y="245" as="targetPoint" />
          </mxGeometry>
        </mxCell>
        <mxCell id="_W7ZdrHySZgYsnJC7ajW-46" value="" style="ellipse;whiteSpace=wrap;html=1;align=center;aspect=fixed;fillColor=none;strokeColor=none;resizable=0;perimeter=centerPerimeter;rotatable=0;allowArrows=0;points=[];outlineConnect=1;" vertex="1" parent="1">
          <mxGeometry x="145" y="230" width="10" height="10" as="geometry" />
        </mxCell>
        <mxCell id="_W7ZdrHySZgYsnJC7ajW-47" value="IProcessOrder" style="text;html=1;align=center;verticalAlign=middle;resizable=0;points=[];autosize=1;strokeColor=none;fillColor=none;" vertex="1" parent="1">
          <mxGeometry x="45" y="220" width="100" height="30" as="geometry" />
        </mxCell>
        <mxCell id="_W7ZdrHySZgYsnJC7ajW-53" style="edgeStyle=orthogonalEdgeStyle;rounded=0;orthogonalLoop=1;jettySize=auto;html=1;" edge="1" parent="1" source="_W7ZdrHySZgYsnJC7ajW-50" target="_W7ZdrHySZgYsnJC7ajW-51">
          <mxGeometry relative="1" as="geometry" />
        </mxCell>
        <mxCell id="_W7ZdrHySZgYsnJC7ajW-50" value="Actor" style="shape=umlActor;verticalLabelPosition=bottom;verticalAlign=top;html=1;" vertex="1" parent="1">
          <mxGeometry x="-535" y="320" width="30" height="60" as="geometry" />
        </mxCell>
        <mxCell id="_W7ZdrHySZgYsnJC7ajW-56" style="edgeStyle=orthogonalEdgeStyle;rounded=0;orthogonalLoop=1;jettySize=auto;html=1;" edge="1" parent="1" source="_W7ZdrHySZgYsnJC7ajW-51" target="_W7ZdrHySZgYsnJC7ajW-54">
          <mxGeometry relative="1" as="geometry" />
        </mxCell>
        <mxCell id="_W7ZdrHySZgYsnJC7ajW-51" value="" style="ellipse;shape=cloud;whiteSpace=wrap;html=1;" vertex="1" parent="1">
          <mxGeometry x="-580" y="170" width="120" height="80" as="geometry" />
        </mxCell>
        <mxCell id="_W7ZdrHySZgYsnJC7ajW-57" style="edgeStyle=orthogonalEdgeStyle;rounded=0;orthogonalLoop=1;jettySize=auto;html=1;" edge="1" parent="1" source="_W7ZdrHySZgYsnJC7ajW-54" target="_W7ZdrHySZgYsnJC7ajW-1">
          <mxGeometry relative="1" as="geometry" />
        </mxCell>
        <mxCell id="_W7ZdrHySZgYsnJC7ajW-54" value="&amp;laquo;Annotation&amp;raquo;&lt;br/&gt;&lt;b&gt;Component&lt;/b&gt;" style="html=1;dropTarget=0;whiteSpace=wrap;" vertex="1" parent="1">
          <mxGeometry x="-410" y="150" width="180" height="90" as="geometry" />
        </mxCell>
        <mxCell id="_W7ZdrHySZgYsnJC7ajW-55" value="" style="shape=module;jettyWidth=8;jettyHeight=4;" vertex="1" parent="_W7ZdrHySZgYsnJC7ajW-54">
          <mxGeometry x="1" width="20" height="20" relative="1" as="geometry">
            <mxPoint x="-27" y="7" as="offset" />
          </mxGeometry>
        </mxCell>
      </root>
    </mxGraphModel>
  </diagram>
</mxfile>
